<?xml version="1.0" standalone="no"?>
<!DOCTYPE svg PUBLIC "-//W3C//DTD SVG 20010904//EN"
 "http://www.w3.org/TR/2001/REC-SVG-20010904/DTD/svg10.dtd">
<svg version="1.0" xmlns="http://www.w3.org/2000/svg"
 width="512.000000pt" height="512.000000pt" viewBox="0 0 512.000000 512.000000"
 preserveAspectRatio="xMidYMid meet">
<metadata>
Created by potrace 1.14, written by Peter Selinger 2001-2017
</metadata>
<g transform="translate(0.000000,512.000000) scale(0.100000,-0.100000)"
fill="#000000" stroke="none">
<path d="M0 2560 l0 -2560 2560 0 2560 0 0 2560 0 2560 -2560 0 -2560 0 0
-2560z m997 2015 c-3 -19 -5 -35 -4 -35 1 0 331 -5 732 -10 402 -5 827 -14
945 -21 266 -14 1577 -9 1588 6 4 6 69 11 150 13 123 2 142 1 142 -13 0 -11
-11 -15 -37 -15 -34 -1 -29 -4 41 -27 82 -28 98 -40 156 -114 19 -24 41 -50
48 -58 7 -7 16 -26 19 -42 3 -16 10 -29 15 -29 12 0 4 -496 -10 -675 -9 -103
-9 -306 -2 -765 9 -631 14 -720 43 -865 9 -44 21 -111 28 -150 6 -38 24 -109
40 -156 16 -48 29 -96 29 -107 0 -11 5 -24 10 -27 6 -3 10 -15 10 -26 0 -10 4
-27 10 -37 34 -59 50 -145 50 -262 0 -132 -8 -146 -48 -84 -12 20 -22 40 -22
45 0 5 -4 9 -10 9 -5 0 -10 5 -10 10 0 6 -10 21 -22 34 -13 13 -36 40 -53 62
-16 21 -41 50 -55 64 -14 14 -36 41 -50 60 -13 19 -27 37 -30 40 -3 3 -17 21
-30 40 -13 19 -32 42 -41 50 -9 9 -30 43 -47 77 -16 33 -40 72 -53 86 l-24 26
-520 -15 c-286 -8 -565 -19 -620 -24 -55 -5 -134 -12 -175 -16 -41 -3 -219 -1
-395 5 -208 7 -321 7 -323 1 -5 -13 -32 -13 -32 0 0 15 -1153 6 -1400 -10
-200 -13 -351 -8 -650 23 l-115 12 -5 120 c-3 66 -9 125 -13 132 -4 7 -8 357
-9 778 0 472 -4 765 -10 765 -6 0 -7 32 -4 78 3 42 10 194 15 337 11 272 16
318 48 400 48 127 102 185 173 185 19 0 38 8 48 19 10 11 35 30 57 42 35 20
59 23 188 27 l147 4 28 34 c15 18 35 33 46 33 16 1 18 -4 13 -34z"/>
<path d="M670 4503 c-37 -6 -111 -45 -124 -65 -7 -11 -23 -18 -44 -18 -131 0
-224 -217 -221 -520 1 -93 0 -94 44 60 14 52 30 104 35 115 4 11 18 52 30 90
13 39 26 79 30 90 4 11 14 46 21 78 14 63 39 79 39 25 l1 -33 14 33 c15 34 45
44 45 14 0 -10 -3 -22 -7 -26 -4 -3 -13 -23 -21 -44 -46 -125 -61 -196 -68
-322 -3 -73 -3 -74 10 -39 19 48 93 186 123 226 12 17 23 35 23 38 0 13 105
130 195 218 l90 87 -95 -1 c-52 -1 -106 -4 -120 -6z"/>
<path d="M880 4453 c-35 -35 -58 -63 -52 -63 34 0 -19 -201 -98 -375 -14 -32
-80 -205 -96 -255 -8 -25 -19 -54 -23 -65 -13 -31 -48 -145 -61 -195 -6 -25
-14 -54 -19 -65 -4 -11 -19 -54 -31 -95 -13 -41 -27 -82 -31 -90 -4 -8 -23
-64 -42 -125 -20 -60 -39 -119 -43 -130 -9 -27 63 84 109 166 20 36 37 75 37
87 0 11 6 27 13 34 43 46 164 392 194 558 5 31 14 46 26 48 22 4 23 -26 3
-102 -8 -30 -17 -76 -20 -103 l-6 -48 14 46 c7 26 17 52 20 58 7 11 99 363
117 449 5 23 14 63 19 90 6 26 13 67 16 92 3 25 10 61 16 81 20 67 5 68 -62 2z"/>
<path d="M976 4467 c-20 -132 -26 -167 -35 -209 -6 -27 -15 -67 -20 -90 -5
-24 -21 -87 -35 -142 -39 -150 -29 -148 23 4 12 36 26 73 31 82 6 10 10 24 10
31 0 8 27 46 60 85 44 53 60 80 60 102 0 20 5 30 15 30 8 0 15 -9 15 -20 0
-11 5 -20 10 -20 6 0 10 -11 10 -25 0 -14 -4 -25 -10 -25 -5 0 -10 -8 -10 -18
0 -10 -4 -22 -9 -27 -5 -6 -16 -39 -24 -75 -8 -36 -27 -104 -41 -153 -30 -102
-31 -103 -11 -87 8 7 15 17 15 22 0 16 166 243 237 326 51 57 83 68 83 27 0
-39 -30 -179 -41 -189 -5 -6 -9 -18 -9 -28 0 -9 -6 -32 -14 -50 -8 -18 -27
-64 -42 -103 -16 -38 -35 -83 -44 -100 -9 -16 -20 -39 -24 -50 -13 -35 10 -3
43 60 18 33 37 69 44 80 7 10 30 49 51 85 57 93 192 267 270 347 17 17 45 48
61 67 17 19 38 35 49 35 17 1 18 -4 12 -45 -3 -26 -10 -52 -15 -58 -13 -16
-51 -129 -51 -152 0 -10 -6 -31 -14 -45 -7 -14 -16 -39 -20 -55 -4 -16 -34
-83 -67 -150 -32 -66 -59 -126 -59 -132 0 -5 -3 -12 -7 -14 -14 -6 -53 -98
-59 -141 l-7 -42 22 20 c21 18 111 169 111 185 0 10 137 280 170 335 14 22 28
42 32 43 4 2 8 8 8 14 0 17 76 88 94 88 13 0 16 -12 16 -57 1 -57 1 -58 16
-30 8 15 18 27 22 27 4 0 18 17 32 38 14 20 32 45 40 54 8 9 35 41 60 72 53
65 86 75 77 22 -3 -18 -19 -63 -36 -99 -17 -36 -31 -73 -31 -82 0 -8 -6 -15
-12 -16 -7 -1 -2 -4 12 -8 16 -5 31 -3 41 6 8 7 21 13 27 13 11 0 82 113 82
131 0 5 4 9 8 9 4 0 16 14 25 30 18 31 57 42 57 16 0 -7 -9 -35 -19 -62 -11
-27 -34 -89 -51 -139 -18 -49 -36 -100 -41 -112 -5 -13 -13 -33 -18 -45 -5
-13 -14 -36 -21 -53 -20 -49 -40 -119 -40 -140 1 -17 5 -14 30 15 16 19 46 62
66 95 21 33 61 96 89 140 66 102 122 210 140 273 3 12 13 22 21 22 19 0 18
-52 -1 -96 -8 -19 -21 -49 -29 -66 -8 -18 -22 -55 -31 -83 -9 -27 -20 -60 -26
-72 -43 -104 -45 -112 -14 -83 27 25 94 139 129 218 24 52 46 56 46 7 0 -34
-43 -228 -60 -270 -4 -11 -19 -47 -33 -80 -14 -33 -29 -73 -33 -90 -4 -16 -15
-43 -24 -60 -37 -67 -26 -66 38 2 61 65 69 79 91 155 13 46 29 101 36 123 7
22 20 69 30 105 9 36 21 74 25 85 5 11 18 57 29 103 25 99 51 156 72 160 13 2
17 -10 23 -59 8 -78 7 -206 -3 -282 l-7 -57 30 29 c58 54 154 111 187 111 l31
0 -4 -117 c-4 -110 -19 -184 -48 -235 -6 -10 -10 -26 -10 -37 0 -11 -4 -21 -8
-23 -4 -1 -23 -30 -41 -63 l-34 -59 35 29 c27 25 40 51 71 145 21 64 51 140
67 170 17 30 55 106 86 169 65 132 133 240 152 241 11 0 13 -12 9 -47 -6 -56
-15 -100 -27 -128 -4 -11 -16 -49 -25 -85 -9 -36 -24 -81 -32 -100 l-14 -35
38 35 c20 19 46 44 58 56 39 39 98 77 129 83 26 5 36 17 67 76 19 39 44 91 54
118 12 33 23 47 36 47 24 0 24 -19 -1 -94 -31 -93 -40 -122 -40 -129 0 -4 22
9 49 28 33 24 59 35 83 35 36 0 51 12 98 83 14 20 31 37 38 37 22 0 13 -91
-18 -190 -17 -52 -30 -103 -30 -113 0 -9 -4 -25 -9 -35 -5 -9 -15 -37 -21 -62
-25 -91 -33 -115 -39 -130 -4 -8 -18 -49 -30 -90 -12 -41 -35 -112 -50 -157
-15 -46 -26 -83 -24 -83 7 0 78 54 81 63 2 4 8 7 13 7 15 0 69 59 69 75 0 9 4
23 9 33 5 9 24 55 41 102 18 47 36 93 41 102 5 10 9 27 9 37 0 11 4 30 9 43 5
13 14 43 21 68 7 25 16 54 20 65 8 19 33 105 61 205 7 25 21 59 31 75 10 17
18 33 18 37 0 4 -291 9 -647 11 -357 2 -803 9 -993 15 -190 6 -562 13 -827 16
l-481 4 -6 -41z"/>
<path d="M4069 4473 l-96 -4 -6 -162 c-3 -89 -10 -182 -15 -207 -6 -25 -16
-83 -23 -130 -6 -47 -17 -88 -23 -92 -8 -6 -8 -8 0 -8 6 0 18 7 25 17 22 26
141 118 176 136 18 10 41 17 53 17 18 0 20 -6 20 -59 0 -105 -51 -279 -139
-480 -42 -93 -46 -116 -16 -91 23 19 46 66 105 216 29 71 62 152 74 179 12 28
33 77 45 110 13 33 32 79 42 102 11 24 19 47 19 53 0 6 4 18 9 28 14 26 61
132 79 177 9 22 28 61 44 86 15 25 28 51 28 58 0 6 5 11 10 11 6 0 10 6 10 13
0 34 -98 41 -421 30z"/>
<path d="M4520 4403 c0 -37 -14 -126 -30 -193 -31 -126 -61 -240 -67 -256 -4
-11 20 9 54 44 39 40 68 62 83 62 21 0 22 -3 18 -57 -4 -44 -3 -52 5 -33 5 14
32 72 59 130 28 58 55 115 61 127 5 12 17 23 25 25 10 2 0 21 -34 63 -69 85
-84 98 -125 113 -49 17 -49 17 -49 -25z"/>
<path d="M3925 4368 c-2 -7 -18 -62 -35 -123 -18 -60 -36 -119 -40 -130 -7
-18 -30 -95 -61 -205 -7 -25 -26 -76 -41 -114 -16 -38 -26 -71 -24 -73 2 -3
14 5 25 16 12 12 23 21 25 21 2 0 23 17 45 37 30 27 43 47 47 75 4 21 10 38
13 38 4 0 13 37 20 83 7 45 16 103 21 128 13 63 25 259 16 259 -4 0 -8 -6 -11
-12z"/>
<path d="M2660 4365 c0 -11 -42 -172 -50 -190 -5 -11 -11 -31 -15 -45 -3 -14
-11 -40 -16 -57 -33 -118 -48 -173 -45 -173 1 0 29 29 60 66 58 64 58 66 72
157 16 108 18 247 4 247 -5 0 -10 -2 -10 -5z"/>
<path d="M776 4295 c-9 -13 -16 -31 -16 -40 0 -8 -4 -15 -10 -15 -5 0 -10 -7
-10 -15 0 -14 -52 -122 -80 -165 -21 -34 -100 -210 -100 -225 0 -8 -4 -15 -10
-15 -5 0 -10 -8 -10 -19 0 -10 -7 -24 -15 -31 -8 -7 -15 -18 -15 -25 0 -14
-136 -284 -164 -327 -10 -16 -25 -28 -33 -28 -12 0 -14 9 -8 48 4 26 11 55 16
64 5 9 9 23 8 30 0 7 -6 1 -12 -13 -7 -14 -17 -32 -23 -40 -8 -9 -13 -133 -16
-384 -3 -203 -1 -345 3 -313 4 31 21 91 37 135 16 43 50 141 75 218 54 166 96
292 108 320 4 11 13 40 19 65 6 25 20 72 31 105 11 33 24 76 30 95 12 40 65
185 79 215 65 147 149 385 135 385 -1 0 -10 -11 -19 -25z"/>
<path d="M1603 4292 c-13 -15 -23 -33 -23 -39 0 -7 -4 -13 -8 -13 -4 0 -19
-18 -32 -40 -14 -22 -28 -40 -32 -40 -5 0 -8 -9 -8 -20 0 -11 -3 -20 -8 -20
-4 0 -23 -31 -42 -70 -19 -38 -38 -70 -42 -70 -5 0 -8 -5 -8 -11 0 -6 -14 -32
-31 -58 -37 -54 -57 -89 -112 -191 -22 -41 -44 -76 -48 -78 -5 -2 -9 -9 -9
-16 0 -7 -6 -26 -14 -42 -24 -51 -44 -98 -51 -121 -3 -13 -13 -23 -21 -23 -8
0 -14 -9 -14 -20 0 -27 -16 -25 -46 5 -14 14 -34 25 -45 25 -40 0 -208 -142
-209 -177 0 -7 -4 -13 -10 -13 -5 0 -10 -4 -10 -10 0 -5 -13 -32 -30 -60 -16
-28 -30 -57 -30 -65 0 -8 -4 -15 -10 -15 -5 0 -10 -10 -10 -23 0 -13 -6 -29
-12 -35 -9 -9 -13 -52 -13 -140 0 -122 1 -129 29 -177 50 -85 133 -185 155
-185 6 0 11 -3 11 -8 0 -20 156 -72 215 -72 135 0 174 99 175 438 0 151 -3
180 -21 230 -12 31 -23 67 -26 80 -3 12 -9 22 -14 22 -5 0 -9 6 -9 13 0 29
-36 47 -93 47 -46 0 -57 3 -57 16 0 14 11 16 85 12 77 -4 85 -3 85 14 0 10 4
26 9 36 6 9 24 64 41 122 50 168 91 283 103 288 4 2 7 10 7 19 0 15 71 159
100 203 23 33 161 302 158 306 -2 1 -13 -10 -25 -24z"/>
<path d="M2004 4297 c-10 -12 -26 -33 -35 -47 -9 -14 -26 -36 -38 -49 -13 -15
-21 -38 -21 -61 0 -21 -3 -53 -6 -71 l-5 -34 17 35 c45 89 74 155 74 167 0 7
4 13 8 13 5 0 13 16 19 35 6 19 10 35 9 35 -1 0 -11 -10 -22 -23z"/>
<path d="M4449 4290 c-30 -63 -84 -186 -99 -225 -4 -11 -18 -45 -30 -75 -25
-62 -29 -71 -61 -155 -12 -33 -25 -64 -29 -70 -4 -5 -22 -48 -40 -95 -18 -47
-36 -89 -40 -95 -4 -5 -10 -18 -13 -28 -13 -36 13 -5 84 101 40 59 85 124 101
144 21 27 42 83 78 214 28 98 50 186 50 197 0 10 5 27 11 38 5 11 9 34 7 52
l-3 32 -16 -35z"/>
<path d="M3081 4148 c-45 -89 -85 -165 -89 -168 -10 -7 -52 -133 -47 -139 5
-5 41 33 83 89 15 19 29 37 32 40 8 7 78 227 86 270 4 19 11 41 17 48 5 7 7
15 5 18 -3 3 -42 -68 -87 -158z"/>
<path d="M684 4253 c-22 -26 -42 -49 -46 -51 -5 -2 -8 -8 -8 -14 0 -5 -11 -24
-24 -41 -13 -18 -33 -50 -44 -72 -11 -22 -34 -67 -51 -99 -17 -32 -31 -67 -31
-77 0 -11 -4 -19 -8 -19 -14 0 -30 -43 -42 -112 -7 -35 -18 -87 -26 -117 -7
-30 -12 -56 -10 -59 3 -2 16 20 29 50 14 29 45 96 71 149 25 53 46 99 46 102
0 4 25 57 56 119 123 245 138 277 131 284 -2 3 -22 -17 -43 -43z"/>
<path d="M3668 4275 c-11 -15 -18 -40 -17 -67 l0 -43 20 55 c23 64 21 88 -3
55z"/>
<path d="M3570 4250 c0 -5 -5 -10 -10 -10 -12 0 -24 -9 -85 -66 -33 -30 -49
-54 -61 -95 -9 -29 -19 -61 -23 -69 -4 -8 -15 -42 -26 -75 -10 -33 -29 -88
-42 -122 -12 -34 -23 -68 -23 -77 0 -8 -4 -18 -10 -21 -5 -3 -10 -16 -10 -29
0 -12 -4 -26 -9 -32 -5 -5 -19 -34 -31 -64 -31 -78 -43 -103 -54 -119 -16 -21
-37 -86 -23 -72 6 6 21 11 34 11 22 0 23 -3 24 -82 l0 -83 15 50 c44 148 58
191 64 200 3 6 13 30 20 55 7 25 17 50 20 55 4 6 17 39 29 75 13 36 27 69 32
74 5 6 9 18 9 27 0 9 9 34 19 56 11 21 27 56 37 78 9 22 41 91 70 153 30 62
54 121 54 132 0 10 5 22 10 25 18 11 11 35 -10 35 -11 0 -20 -4 -20 -10z"/>
<path d="M1279 4211 c-14 -14 -34 -39 -45 -56 -10 -16 -24 -33 -30 -37 -9 -6
-107 -142 -136 -191 -34 -54 -98 -169 -113 -202 -29 -61 -65 -88 -65 -48 0 15
50 178 71 228 17 43 60 195 55 195 -2 0 -27 -46 -56 -102 -54 -106 -61 -134
-80 -309 -6 -53 -15 -118 -20 -145 -27 -133 -31 -156 -28 -160 2 -2 15 7 28
19 59 54 104 77 152 77 30 0 52 -6 63 -16 9 -9 17 -15 18 -13 1 2 11 29 21 59
10 30 33 85 51 123 19 37 30 65 24 62 -5 -4 -19 -25 -30 -48 -12 -22 -28 -47
-35 -55 -8 -7 -14 -18 -14 -23 0 -5 -7 -9 -16 -9 -25 0 -14 82 20 156 74 157
85 183 106 234 12 30 28 70 36 88 8 18 14 39 14 47 0 9 4 23 9 33 11 19 34
113 29 117 -2 1 -15 -10 -29 -24z"/>
<path d="M2155 4214 c-16 -24 -35 -105 -21 -93 6 6 45 119 41 119 -2 0 -10
-12 -20 -26z"/>
<path d="M4741 4223 c0 -12 -8 -48 -17 -80 -9 -32 -18 -69 -21 -83 -3 -14 -25
-68 -49 -120 -34 -74 -40 -96 -29 -98 24 -5 17 -32 -17 -72 -55 -62 -66 -78
-86 -117 -22 -44 -55 -145 -72 -223 -6 -30 -16 -71 -20 -90 -5 -19 -11 -55
-14 -81 -5 -42 -46 -188 -66 -234 -4 -11 -20 -56 -35 -100 -15 -44 -32 -93
-40 -110 -7 -16 -27 -73 -45 -125 -18 -52 -45 -113 -60 -135 -25 -37 -70 -112
-70 -118 0 -1 18 -1 40 1 l40 4 1 -48 c0 -27 3 -42 6 -34 3 8 9 17 12 20 9 6
57 108 83 175 24 62 38 94 74 170 15 33 31 84 36 113 4 28 13 78 18 110 6 31
13 94 16 140 6 69 9 82 24 82 15 0 16 -9 13 -77 -5 -75 -4 -77 12 -55 9 13 32
82 50 155 32 128 57 210 75 252 4 11 22 58 40 105 40 107 44 114 64 118 13 3
16 -5 16 -45 0 -26 -7 -73 -16 -103 -9 -30 -18 -70 -21 -87 -3 -18 -9 -33 -14
-33 -5 0 -9 -13 -9 -30 0 -16 -4 -30 -8 -30 -5 0 -15 -25 -22 -55 -7 -30 -16
-55 -20 -55 -4 0 -10 -9 -13 -20 -3 -13 0 -20 9 -20 30 0 12 -257 -22 -312 -5
-8 -2 -9 12 -3 10 4 36 10 57 13 33 4 37 2 37 -18 0 -12 -15 -36 -34 -53 -118
-112 -148 -137 -161 -137 -19 0 -19 17 0 70 8 23 15 44 15 45 0 1 -11 0 -25
-3 -41 -7 -30 24 15 42 22 9 40 21 40 27 0 6 6 25 14 42 22 50 36 121 36 182
0 50 -2 55 -15 41 -8 -8 -15 -19 -15 -24 0 -5 -7 -23 -15 -38 -8 -16 -15 -37
-15 -46 0 -9 -4 -19 -9 -22 -5 -3 -12 -18 -16 -33 -6 -27 -41 -110 -92 -223
-14 -30 -34 -75 -44 -100 -11 -25 -27 -58 -34 -73 -8 -16 -15 -35 -15 -44 0
-8 -7 -27 -14 -41 -24 -44 -53 -118 -61 -153 -4 -19 -11 -38 -15 -44 -4 -5
-10 -26 -14 -45 -17 -88 -25 -139 -31 -185 l-7 -50 31 47 c17 26 40 69 52 95
19 40 62 115 170 291 34 55 175 308 182 325 3 9 14 17 23 17 15 0 16 -10 11
-90 -3 -49 -10 -105 -16 -122 -6 -18 -20 -67 -32 -108 -11 -41 -25 -84 -29
-95 -4 -11 -17 -43 -29 -72 -15 -37 -21 -72 -20 -120 1 -37 4 -59 6 -48 3 11
9 22 12 25 4 3 23 34 42 70 19 35 38 69 42 75 5 5 17 25 27 43 11 17 27 32 36
32 14 0 16 -9 11 -62 -4 -55 -39 -184 -68 -255 -6 -18 -5 -23 6 -23 7 0 17 5
20 10 3 5 20 10 37 10 29 0 30 -1 24 -37 -4 -21 -11 -74 -15 -118 -4 -44 -15
-105 -24 -135 -8 -30 -13 -57 -11 -59 2 -2 4 1 4 7 0 7 7 12 15 12 12 0 15
-16 15 -80 l0 -81 31 16 c48 25 59 15 59 -57 l0 -63 54 3 54 4 -8 31 c-4 18
-18 61 -29 97 -29 88 -51 184 -51 225 0 19 -7 60 -16 92 -29 104 -35 218 -45
878 -7 495 -7 685 3 795 15 189 22 620 9 620 -5 0 -12 10 -14 23 l-4 22 -2
-22z"/>
<path d="M1803 4208 c-13 -13 -23 -30 -23 -36 0 -7 -4 -12 -9 -12 -13 0 -72
-102 -140 -245 -35 -71 -74 -151 -87 -176 -59 -114 5 -52 78 76 100 173 132
225 159 256 32 37 52 96 47 136 l-3 25 -22 -24z"/>
<path d="M3398 4177 c-3 -19 -2 -25 4 -19 6 6 8 18 6 28 -3 14 -5 12 -10 -9z"/>
<path d="M2843 4141 c-94 -61 -163 -129 -163 -163 0 -15 -4 -37 -9 -50 -5 -13
-14 -50 -21 -83 -11 -59 -42 -190 -60 -250 -4 -16 -14 -55 -20 -85 -7 -30 -16
-69 -20 -87 -8 -30 -6 -32 23 -38 51 -11 107 -52 107 -79 0 -14 9 -27 24 -34
24 -11 25 -10 36 46 7 31 33 121 60 200 26 78 44 142 39 142 -5 0 -9 -4 -9 -8
0 -5 -18 -27 -40 -50 -87 -92 -93 -27 -11 117 28 49 51 93 51 100 0 6 5 11 10
11 6 0 10 7 10 15 0 8 4 23 10 33 23 41 43 122 47 192 8 118 8 118 -64 71z"/>
<path d="M3315 4159 c-5 -5 -30 -26 -55 -47 -69 -57 -140 -126 -140 -135 0 -4
-9 -17 -20 -29 -11 -12 -20 -34 -20 -49 0 -15 -4 -31 -10 -34 -5 -3 -10 -19
-10 -36 0 -16 -4 -29 -10 -29 -5 0 -10 -8 -10 -19 0 -23 -24 -78 -101 -238
-32 -67 -59 -130 -59 -139 0 -10 -4 -31 -10 -48 -5 -17 -18 -68 -29 -112 -20
-81 -20 -82 -1 -135 21 -57 28 -213 11 -247 -5 -9 -19 -41 -32 -69 -12 -29
-31 -60 -41 -70 -10 -9 -18 -21 -18 -27 0 -6 -8 -16 -19 -23 -13 -8 -20 -28
-25 -65 -15 -133 -30 -215 -49 -268 -3 -8 -8 -28 -12 -45 l-7 -30 26 24 c14
14 26 28 26 32 0 5 11 32 24 61 25 55 56 152 56 172 0 26 93 312 115 356 8 14
21 45 30 70 9 25 23 61 32 80 8 19 18 44 23 55 4 11 17 42 29 68 23 51 22 51
-46 5 -48 -33 -73 -36 -73 -9 0 24 77 261 90 276 6 7 7 26 4 42 -7 34 11 78
62 158 40 63 114 186 114 190 0 2 24 39 54 82 54 79 126 211 126 232 0 13 -11
14 -25 0z"/>
<path d="M411 4110 c-8 -30 -17 -57 -21 -60 -4 -3 -14 -32 -23 -65 -75 -280
-87 -332 -87 -389 l0 -61 30 53 c16 29 45 98 64 153 33 91 36 110 36 208 0 59
5 122 11 139 6 17 9 41 7 54 -2 16 -7 5 -17 -32z"/>
<path d="M1992 4109 c-40 -60 -85 -149 -80 -155 3 -2 15 15 27 39 12 23 31 56
41 72 33 51 52 87 48 91 -2 2 -19 -19 -36 -47z"/>
<path d="M3585 4077 c-17 -37 -33 -67 -37 -67 -5 0 -8 -6 -8 -13 0 -8 -6 -27
-14 -43 -17 -35 -64 -141 -77 -171 -5 -13 -14 -35 -20 -50 -6 -16 -15 -35 -18
-43 -4 -8 -14 -36 -22 -62 -7 -27 -17 -48 -21 -48 -4 0 -8 -10 -8 -22 0 -16
10 -4 32 37 17 33 42 78 55 100 77 131 180 389 171 432 -2 10 -15 -10 -33 -50z"/>
<path d="M1541 4058 c-42 -81 -65 -122 -71 -128 -12 -12 -70 -140 -70 -154 0
-9 -3 -16 -8 -16 -4 0 -12 -15 -18 -32 -6 -18 -21 -60 -32 -93 -11 -33 -35
-107 -52 -165 -17 -58 -35 -114 -40 -125 -19 -46 -20 -61 -3 -116 19 -66 31
-74 40 -29 3 17 10 33 14 36 5 3 9 12 9 19 0 8 21 58 48 112 26 54 53 116 61
138 8 22 27 60 43 85 l30 45 -29 -33 c-19 -22 -37 -32 -57 -32 l-29 0 5 68 c5
61 15 88 95 253 85 173 110 229 100 229 -2 0 -18 -28 -36 -62z"/>
<path d="M2078 4087 c-5 -10 -8 -44 -7 -75 l1 -57 9 45 c11 54 8 116 -3 87z"/>
<path d="M2435 4090 c-3 -5 -1 -10 4 -10 6 0 11 5 11 10 0 6 -2 10 -4 10 -3 0
-8 -4 -11 -10z"/>
<path d="M2243 3988 c-28 -46 -59 -93 -69 -105 -46 -53 -54 -64 -54 -72 0 -5
-4 -11 -8 -13 -10 -4 -55 -78 -47 -78 8 0 54 48 100 105 21 28 44 55 50 60 19
17 45 61 55 94 6 17 14 45 19 61 5 17 8 30 7 30 -2 0 -26 -37 -53 -82z"/>
<path d="M1393 4048 c-19 -24 -24 -38 -15 -38 5 0 14 11 20 25 13 27 10 32 -5
13z"/>
<path d="M3350 4035 c0 -8 -4 -15 -8 -15 -5 0 -17 -19 -27 -42 -9 -24 -21 -51
-26 -60 -5 -10 -9 -28 -9 -41 0 -13 -4 -27 -9 -32 -4 -6 -14 -32 -21 -60 -7
-27 -16 -54 -20 -60 -4 -5 -13 -35 -20 -65 -7 -30 -19 -70 -27 -89 -8 -18 -13
-35 -11 -37 3 -3 56 119 83 191 37 98 57 155 65 185 5 19 18 59 29 88 11 28
15 52 10 52 -5 0 -9 -7 -9 -15z"/>
<path d="M2408 4021 c-14 -14 -79 -110 -146 -218 -11 -17 -23 -46 -27 -65 -4
-18 -11 -37 -15 -43 -4 -5 -12 -30 -18 -55 -5 -25 -21 -83 -34 -130 -14 -47
-31 -112 -38 -145 -7 -33 -17 -64 -20 -70 -4 -5 -10 -32 -13 -59 l-5 -49 30
59 c16 33 43 73 59 90 38 40 103 74 140 74 25 0 29 4 29 28 0 15 4 32 8 38 19
21 87 234 76 234 -3 0 -26 -20 -52 -45 -29 -28 -56 -45 -71 -45 -21 0 -23 3
-18 34 3 18 17 59 31 90 14 31 26 59 26 62 0 3 18 52 41 110 42 107 46 133 17
105z"/>
<path d="M4496 3965 c-21 -24 -47 -58 -58 -77 -11 -18 -24 -34 -29 -36 -11 -4
-45 -123 -52 -182 -5 -41 -5 -42 5 -15 6 17 19 39 29 51 11 11 19 25 19 31 0
5 9 18 19 27 33 30 133 247 113 245 -4 0 -24 -20 -46 -44z"/>
<path d="M1331 3950 c-17 -28 -31 -53 -31 -57 0 -3 -7 -15 -17 -25 -9 -10 -14
-21 -11 -23 3 -3 27 28 53 70 26 42 45 78 42 81 -2 3 -19 -18 -36 -46z"/>
<path d="M1996 3938 c-32 -70 -60 -142 -121 -318 -56 -162 -74 -210 -84 -235
-5 -11 -19 -45 -31 -75 -13 -30 -33 -77 -45 -105 -12 -27 -25 -61 -29 -75 -7
-24 -10 -32 -36 -95 -19 -47 -50 -146 -50 -161 0 -8 -4 -14 -9 -14 -5 0 -11
-10 -14 -22 -2 -13 -8 -32 -11 -43 -6 -16 -3 -15 11 5 10 13 45 61 79 105 40
54 66 102 78 141 9 32 23 73 31 89 7 17 30 80 50 140 21 61 43 120 51 132 8
12 14 31 14 41 0 10 4 22 9 28 8 9 77 176 92 224 4 14 17 50 29 80 22 57 40
220 24 220 -5 0 -22 -28 -38 -62z"/>
<path d="M4109 3982 c-14 -9 -33 -25 -43 -34 -10 -10 -21 -18 -25 -18 -4 0
-27 -18 -52 -40 -24 -22 -58 -50 -76 -62 -22 -16 -35 -36 -43 -68 -7 -25 -16
-58 -21 -75 -20 -73 -49 -206 -49 -229 0 -35 -10 -56 -27 -56 -12 0 -14 10 -8
53 7 55 40 212 56 261 13 40 11 53 -3 35 -7 -9 -41 -37 -75 -64 -35 -26 -63
-52 -63 -58 0 -5 -16 -51 -36 -101 -34 -87 -45 -112 -100 -234 -13 -29 -24
-57 -24 -62 0 -6 22 6 49 25 26 19 55 35 63 35 8 0 18 4 24 9 19 18 144 41
226 41 110 0 143 -7 171 -37 12 -13 50 -53 85 -89 87 -89 142 -176 143 -228
l1 -41 17 50 c10 28 20 57 24 65 20 50 47 143 57 195 6 33 16 82 22 108 5 27
7 51 4 54 -3 4 -6 0 -6 -8 0 -18 -55 -149 -85 -203 -13 -24 -32 -42 -44 -44
-20 -3 -21 1 -21 92 0 57 6 118 16 153 9 32 20 78 24 103 5 25 16 80 25 123 9
44 15 85 13 92 -2 7 -33 -32 -71 -88 -69 -106 -89 -132 -144 -193 -18 -20 -33
-40 -33 -46 0 -19 -29 -38 -69 -44 l-41 -7 0 44 c0 31 14 74 45 144 74 162
135 360 135 436 0 33 -5 34 -41 11z"/>
<path d="M4625 3979 c-4 -6 -5 -12 -2 -15 2 -3 7 2 10 11 7 17 1 20 -8 4z"/>
<path d="M1728 3922 c-17 -37 -48 -93 -58 -102 -3 -3 -17 -26 -30 -52 -14 -27
-28 -48 -32 -48 -5 0 -8 -5 -8 -11 0 -6 -6 -16 -12 -24 -20 -20 -41 -47 -68
-85 -13 -19 -27 -37 -31 -40 -6 -5 -43 -82 -58 -125 -4 -11 -24 -54 -44 -95
-87 -180 -89 -188 -97 -465 -7 -236 -20 -345 -42 -345 -4 0 -8 -6 -8 -13 0
-21 -31 -52 -67 -68 -21 -9 -33 -21 -33 -34 0 -11 -9 -31 -20 -45 -11 -14 -20
-30 -20 -37 0 -6 -4 -13 -8 -15 -14 -6 -52 -66 -52 -81 0 -9 -4 -17 -9 -19 -5
-2 -7 -50 -4 -112 l6 -109 20 44 c65 141 87 183 120 228 9 13 17 30 17 38 0 8
41 99 92 201 117 239 112 226 110 264 -1 35 14 110 29 143 5 11 17 45 28 75
10 30 29 80 41 110 51 125 103 280 96 287 -3 4 -6 -1 -6 -10 0 -10 -8 -17 -20
-17 -24 0 -25 16 -3 61 9 19 16 50 14 70 -1 21 2 40 8 44 6 3 11 14 11 25 0
10 9 35 20 57 10 21 47 103 81 183 33 80 63 148 66 153 2 4 1 7 -4 7 -4 0 -16
-17 -25 -38z"/>
<path d="M2608 3929 c-9 -13 -28 -37 -43 -54 -50 -55 -85 -118 -85 -151 0 -18
-4 -36 -10 -39 -5 -3 -10 -17 -10 -30 0 -13 -4 -34 -9 -47 -5 -13 -19 -50 -31
-83 -12 -33 -27 -70 -33 -82 -6 -13 -8 -25 -6 -27 2 -2 32 -6 66 -9 l62 -5 12
56 c7 32 18 82 26 112 8 30 19 73 23 95 5 22 13 51 18 65 14 37 45 197 40 211
-2 7 -11 2 -20 -12z"/>
<path d="M1916 3886 c-9 -14 -16 -32 -16 -40 0 -7 -6 -16 -12 -19 -7 -3 -22
-22 -33 -43 -10 -22 -38 -66 -61 -99 -22 -33 -47 -76 -54 -95 -7 -19 -21 -53
-30 -75 -10 -22 -34 -77 -54 -122 -20 -45 -36 -91 -36 -101 0 -11 -6 -25 -14
-31 -7 -6 -21 -33 -31 -59 -10 -26 -22 -51 -26 -56 -5 -6 -9 -31 -9 -58 0 -26
-7 -73 -16 -105 -50 -181 -56 -235 -15 -127 53 137 74 192 87 221 8 17 14 35
14 41 0 5 7 23 15 38 8 16 15 37 15 46 0 9 3 19 8 21 4 3 18 37 32 76 20 60
28 71 45 69 22 -3 23 -2 120 277 29 83 62 174 73 204 24 61 23 74 -2 37z"/>
<path d="M1801 3898 c-1 -4 -10 -30 -21 -58 -11 -27 -17 -50 -14 -50 9 0 45
93 40 104 -2 6 -5 8 -5 4z"/>
<path d="M4524 3853 c-10 -26 -22 -52 -26 -58 -4 -5 -19 -24 -33 -41 -14 -18
-25 -35 -25 -39 0 -4 -9 -18 -20 -32 -38 -49 -11 -62 32 -15 24 25 104 219 95
229 -3 2 -13 -17 -23 -44z"/>
<path d="M980 3869 c0 -5 5 -7 10 -4 6 3 10 8 10 11 0 2 -4 4 -10 4 -5 0 -10
-5 -10 -11z"/>
<path d="M3009 3849 c-9 -14 -37 -47 -63 -74 -25 -27 -48 -63 -52 -80 -7 -32
-50 -166 -64 -200 -17 -40 -49 -151 -55 -192 -4 -28 -12 -43 -21 -43 -10 0 -6
-8 11 -26 14 -14 28 -25 30 -23 2 2 17 62 35 132 22 92 47 161 88 245 66 136
92 197 92 215 0 7 5 18 11 24 6 6 9 19 7 29 -3 16 -5 15 -19 -7z"/>
<path d="M3204 3807 c-12 -18 -32 -52 -45 -77 -13 -25 -30 -51 -36 -58 -7 -7
-16 -24 -19 -38 -3 -13 -9 -24 -13 -24 -11 0 -49 -74 -44 -86 2 -6 -10 -39
-27 -73 -32 -64 -83 -211 -76 -219 7 -6 59 30 97 68 26 25 39 49 44 78 4 23
11 44 16 48 5 3 9 15 9 28 0 12 4 26 8 31 5 6 14 35 21 65 8 30 17 60 21 65 4
6 12 33 19 60 7 28 21 74 32 104 11 29 18 55 17 57 -2 1 -13 -12 -24 -29z"/>
<path d="M2183 3790 c-13 -15 -23 -33 -23 -39 0 -6 -4 -11 -9 -11 -10 0 -71
-58 -71 -66 0 -10 -28 -34 -39 -34 -6 0 -15 -19 -21 -42 -7 -24 -23 -76 -36
-117 -14 -40 -23 -78 -22 -82 4 -11 108 145 162 241 20 36 41 72 46 80 16 25
50 89 50 95 0 13 -17 2 -37 -25z"/>
<path d="M1236 3783 c-6 -14 -5 -15 5 -6 7 7 10 15 7 18 -3 3 -9 -2 -12 -12z"/>
<path d="M3503 3723 c-58 -98 -128 -242 -121 -248 14 -14 68 40 84 84 39 110
74 214 72 216 -2 2 -17 -22 -35 -52z"/>
<path d="M820 3698 c-14 -43 -28 -78 -32 -78 -5 0 -8 -6 -8 -14 0 -7 -13 -40
-29 -72 -37 -75 -72 -152 -107 -232 -15 -35 -35 -69 -45 -76 -14 -10 -18 -31
-22 -111 -7 -152 -15 -178 -119 -376 -28 -52 -39 -79 -33 -79 4 0 98 139 104
155 18 49 99 86 103 48 0 -10 4 29 8 87 4 58 13 119 20 135 43 102 115 235
131 243 4 2 5 11 2 21 -2 9 3 53 12 97 31 156 46 258 43 293 -3 33 -5 30 -28
-41z"/>
<path d="M1212 3740 c-18 -29 -15 -38 4 -12 9 13 14 25 12 27 -2 2 -9 -5 -16
-15z"/>
<path d="M2137 3587 c-14 -30 -33 -60 -42 -67 -8 -7 -15 -18 -15 -25 0 -8 -3
-15 -7 -17 -11 -5 -73 -97 -73 -108 0 -6 -4 -10 -10 -10 -5 0 -10 -7 -10 -15
0 -8 -4 -15 -10 -15 -5 0 -10 -4 -10 -9 0 -17 -53 -91 -66 -91 -26 0 -65 -145
-75 -280 -4 -63 -15 -140 -24 -170 -9 -30 -25 -86 -36 -125 -29 -104 -45 -156
-59 -195 -46 -127 -93 -252 -111 -295 -25 -61 -11 -54 85 44 57 58 117 122
133 141 15 19 36 44 45 54 10 11 18 28 18 38 0 10 4 26 9 36 5 9 15 51 21 92
16 94 56 268 80 340 26 78 90 343 90 372 0 13 4 28 8 33 5 6 15 37 22 70 14
63 53 208 65 238 15 38 -3 14 -28 -36z"/>
<path d="M4341 3578 c0 -20 -5 -40 -11 -43 -5 -3 -10 -24 -10 -46 0 -21 -4
-47 -9 -57 -16 -31 -31 -111 -31 -160 l1 -47 21 40 c19 37 138 330 138 341 0
3 -10 -2 -22 -10 -30 -21 -65 -20 -71 2 -3 9 -5 0 -6 -20z"/>
<path d="M3550 3535 c-71 -52 -109 -99 -110 -137 0 -10 -4 -18 -9 -18 -5 0
-13 -10 -17 -22 -4 -13 -26 -65 -50 -115 -24 -51 -44 -99 -44 -108 0 -8 -4
-15 -8 -15 -5 0 -19 -33 -32 -72 -13 -40 -27 -78 -32 -85 -5 -7 -8 -20 -6 -30
4 -18 90 173 103 230 4 15 14 27 22 27 12 0 14 -11 10 -57 -3 -32 -10 -83 -17
-113 -6 -30 -13 -70 -17 -87 -3 -19 -11 -33 -19 -33 -9 0 -14 12 -14 33 -1 29
-3 27 -33 -34 -52 -106 -77 -166 -77 -183 0 -9 -9 -54 -19 -99 -37 -156 -44
-197 -37 -204 3 -4 23 9 44 28 51 48 83 67 122 71 32 3 35 6 59 78 14 41 30
78 36 83 7 5 6 9 -1 15 -38 27 -56 253 -25 332 30 78 53 123 75 147 13 14 27
43 30 64 3 21 17 63 30 91 50 112 65 145 89 206 14 34 25 62 24 62 -1 0 -36
-25 -77 -55z"/>
<path d="M3342 3503 c-1 -12 -6 -24 -11 -27 -5 -3 -11 -18 -14 -33 -3 -16 -21
-80 -39 -143 -28 -96 -33 -124 -27 -170 3 -30 7 -49 8 -42 0 7 11 34 22 60 47
105 68 150 98 213 17 36 31 69 31 72 0 4 -13 7 -29 7 -28 0 -30 3 -34 43 -2
23 -4 32 -5 20z"/>
<path d="M4641 3444 c0 -11 3 -14 6 -6 3 7 2 16 -1 19 -3 4 -6 -2 -5 -13z"/>
<path d="M4601 3345 c-13 -42 -22 -78 -19 -81 3 -2 11 17 18 43 7 26 17 53 22
60 5 7 8 21 6 33 -2 12 -13 -10 -27 -55z"/>
<path d="M2305 3370 c-3 -5 -13 -10 -20 -10 -14 0 -32 -12 -79 -55 -58 -53
-126 -271 -98 -316 7 -10 12 -28 12 -39 0 -11 5 -20 10 -20 6 0 10 -7 10 -15
0 -25 79 -138 135 -192 67 -64 160 -113 231 -120 42 -5 61 -1 95 17 55 28 98
62 98 77 1 6 13 21 28 33 90 71 133 263 78 350 -14 22 -25 49 -25 61 0 26 -59
84 -108 105 -27 12 -53 14 -99 10 -51 -5 -63 -4 -63 8 0 19 22 26 88 26 l57 1
-33 28 c-22 19 -56 33 -108 45 -83 18 -199 21 -209 6z"/>
<path d="M3137 3327 c-28 -27 -50 -59 -53 -77 -4 -16 -10 -30 -14 -30 -5 0
-11 -18 -15 -40 -4 -22 -10 -42 -15 -45 -5 -3 -11 -24 -15 -48 -4 -23 -10 -44
-14 -47 -4 -3 -18 -39 -31 -80 -13 -41 -27 -77 -30 -80 -3 -3 -16 -39 -29 -80
-13 -41 -27 -83 -32 -92 -4 -9 -18 -45 -29 -80 -11 -35 -25 -72 -30 -83 -5
-11 -14 -38 -21 -60 -7 -22 -17 -44 -21 -50 -10 -12 -10 -45 0 -45 4 0 13 5
20 12 6 6 36 12 67 12 46 1 56 4 61 21 4 11 17 43 29 70 25 54 105 261 105
270 0 16 -19 0 -36 -30 -10 -19 -22 -35 -26 -35 -5 0 -8 -6 -8 -13 0 -7 -9
-19 -20 -27 -11 -8 -20 -18 -20 -23 0 -12 -53 -56 -69 -57 -20 0 -6 56 25 97
163 215 278 476 272 619 l-3 67 -48 -46z"/>
<path d="M3750 3292 c-36 -9 -66 -20 -68 -24 -2 -4 -14 -8 -27 -8 -13 0 -25
-4 -27 -8 -1 -5 -30 -27 -63 -49 -87 -59 -117 -98 -149 -195 -41 -120 -27
-246 36 -322 33 -40 98 -76 138 -76 14 0 30 -4 35 -9 17 -15 137 -31 235 -31
86 0 138 9 182 31 10 5 24 9 31 9 7 0 30 14 51 32 44 36 86 117 86 166 0 18 4
40 9 50 5 9 14 43 21 74 10 51 9 61 -10 99 -12 23 -27 48 -33 56 -27 33 -135
142 -181 181 -48 42 -49 42 -125 41 -42 0 -105 -8 -141 -17z"/>
<path d="M1816 3174 c-4 -14 -5 -29 -2 -31 3 -3 8 7 12 21 3 15 4 29 1 32 -2
3 -8 -7 -11 -22z"/>
<path d="M2081 3164 c0 -11 3 -14 6 -6 3 7 2 16 -1 19 -3 4 -6 -2 -5 -13z"/>
<path d="M542 3142 c-1 -12 -6 -30 -11 -40 -5 -9 -15 -45 -22 -79 -7 -35 -17
-63 -21 -63 -4 0 -8 -10 -8 -23 0 -12 -9 -47 -20 -77 -43 -117 -10 -75 38 50
45 115 54 151 50 205 -3 28 -5 40 -6 27z"/>
<path d="M2063 3088 c-6 -29 -20 -84 -31 -123 -41 -143 -82 -308 -92 -363 -5
-31 -12 -68 -16 -82 -6 -25 26 14 100 120 20 29 34 40 47 37 12 -3 22 4 34 27
8 17 25 43 36 57 l21 27 -36 67 c-20 37 -36 75 -36 85 0 10 -5 22 -11 26 -8 5
-10 33 -6 90 3 46 5 84 3 84 -1 0 -7 -24 -13 -52z"/>
<path d="M1795 3120 c-15 -25 -24 -71 -12 -67 6 2 15 18 20 36 8 34 4 51 -8
31z"/>
<path d="M3200 3025 c0 -14 -4 -33 -9 -43 -18 -34 -51 -121 -51 -135 0 -7 -11
-36 -25 -63 -14 -27 -25 -55 -25 -61 0 -7 -9 -32 -19 -55 -11 -24 -27 -63 -36
-88 -10 -25 -21 -54 -26 -65 -45 -109 -71 -183 -88 -250 -11 -45 -27 -94 -35
-110 -9 -17 -16 -35 -16 -41 0 -6 -9 -23 -21 -38 -18 -23 -43 -86 -34 -86 2 0
49 60 104 133 56 72 117 152 136 176 19 24 35 54 35 67 0 12 4 25 9 28 5 3 11
29 14 58 4 29 9 67 13 85 5 29 4 31 -15 26 -30 -8 -27 20 10 103 50 109 113
384 89 384 -6 0 -10 -11 -10 -25z"/>
<path d="M397 2922 c-20 -42 -37 -83 -37 -89 0 -7 -4 -13 -10 -13 -5 0 -10
-11 -10 -24 0 -14 -4 -27 -9 -30 -4 -3 -11 -19 -14 -36 -4 -18 -13 -30 -22
-30 -14 0 -15 -42 -11 -382 3 -211 9 -439 13 -508 l8 -125 110 -12 c291 -30
426 -35 610 -23 99 7 351 15 560 17 l380 4 13 26 c6 15 12 55 12 89 0 46 8 82
30 137 17 42 30 80 30 85 0 5 31 72 69 148 66 134 136 315 128 337 -6 18 -112
-95 -172 -183 -90 -131 -99 -145 -107 -148 -5 -2 -8 -8 -8 -13 0 -9 -38 -69
-51 -79 -4 -3 -9 -14 -13 -25 -3 -11 -18 -33 -33 -50 -29 -31 -143 -255 -143
-280 0 -8 -7 -15 -15 -15 -10 0 -15 10 -15 28 0 28 21 96 33 108 4 4 7 19 7
33 0 14 13 60 30 101 16 41 29 89 30 107 0 17 4 35 10 38 5 3 10 18 10 33 0
15 9 61 20 102 25 95 25 100 -2 66 -13 -16 -68 -74 -123 -130 -130 -132 -163
-170 -177 -203 -6 -16 -16 -41 -23 -58 -39 -92 -45 -110 -45 -141 0 -28 -4
-34 -21 -34 -20 0 -21 3 -15 55 3 30 10 65 15 77 5 13 18 59 29 103 11 44 55
220 97 390 43 171 85 344 95 385 9 41 20 86 25 99 7 24 7 24 -12 5 -11 -10
-35 -41 -53 -69 -19 -27 -47 -63 -63 -80 -34 -35 -59 -88 -83 -176 -10 -35
-21 -66 -24 -69 -4 -3 -17 -36 -30 -75 -24 -74 -83 -200 -99 -209 -5 -3 -16
-41 -25 -83 -9 -43 -21 -97 -26 -121 -6 -23 -10 -53 -10 -66 0 -35 -10 -56
-26 -56 -18 0 -18 36 0 120 14 64 14 93 1 48 -7 -23 -39 -95 -78 -175 -11 -24
-26 -43 -34 -43 -7 0 -13 3 -13 8 0 21 21 242 26 270 3 19 1 32 -6 32 -5 0
-10 -5 -10 -12 0 -6 -13 -40 -30 -75 -16 -34 -30 -68 -30 -73 0 -6 -4 -10 -10
-10 -5 0 -10 -11 -10 -25 0 -14 -4 -25 -10 -25 -5 0 -10 -6 -10 -12 1 -32 -36
-128 -49 -128 -11 0 -12 14 -6 68 4 37 12 76 18 87 6 11 13 67 15 124 4 85 2
103 -9 99 -8 -2 -18 -14 -24 -26 -5 -12 -13 -22 -17 -22 -5 0 -8 -7 -8 -16 0
-18 -61 -114 -72 -114 -5 0 -8 -7 -8 -16 0 -9 -9 -27 -20 -41 -11 -14 -20 -32
-20 -39 0 -8 -4 -22 -9 -32 -5 -9 -20 -40 -33 -69 -33 -74 -48 -69 -48 15 0
58 7 102 37 255 3 16 1 27 -6 27 -6 0 -11 -4 -11 -8 0 -16 -37 -52 -52 -52
-15 0 -78 -125 -78 -154 0 -8 -5 -18 -10 -21 -6 -3 -10 -17 -10 -30 0 -34 -21
-75 -38 -75 -12 0 -13 9 -8 48 3 26 10 88 15 137 11 113 41 244 72 323 5 12 6
22 3 22 -8 0 -156 -155 -181 -188 -10 -15 -34 -53 -52 -84 -38 -67 -61 -76
-61 -23 0 19 5 35 10 35 6 0 10 7 10 15 0 13 25 75 51 127 5 10 9 25 9 33 0 8
4 23 9 33 5 9 13 28 19 42 5 14 17 41 26 62 9 20 16 39 16 43 0 4 6 21 14 38
19 43 46 124 56 167 4 19 15 61 24 93 19 68 21 173 4 183 -12 8 -13 8 -87
-110 -30 -47 -58 -86 -62 -86 -5 0 -9 -4 -9 -10 0 -10 -19 -36 -50 -69 -9 -9
-28 -35 -43 -58 -27 -42 -57 -57 -57 -29 0 8 24 63 54 123 62 125 72 153 55
153 -14 0 -7 40 39 223 15 59 0 44 -41 -41z"/>
<path d="M1752 2973 c-5 -10 -19 -56 -30 -103 -29 -124 -35 -156 -27 -148 7 6
49 151 72 246 6 26 -3 29 -15 5z"/>
<path d="M1771 2854 c0 -11 3 -14 6 -6 3 7 2 16 -1 19 -3 4 -6 -2 -5 -13z"/>
<path d="M4606 2843 c-23 -6 -46 -27 -46 -41 0 -6 -5 -12 -11 -14 -7 -2 -10
-10 -8 -16 3 -8 22 6 49 33 24 25 42 44 40 44 -3 -1 -14 -4 -24 -6z"/>
<path d="M3083 2823 c-3 -10 -8 -22 -11 -27 -3 -5 0 -6 5 -3 11 7 25 47 17 47
-3 0 -7 -8 -11 -17z"/>
<path d="M1751 2783 c-1 -6 -4 -20 -7 -30 -5 -17 -5 -17 6 0 6 10 9 23 6 30
-3 9 -5 9 -5 0z"/>
<path d="M1493 2731 c-10 -28 -21 -51 -25 -51 -5 0 -8 -5 -8 -12 0 -8 4 -8 14
2 16 18 49 101 42 107 -2 3 -13 -18 -23 -46z"/>
<path d="M646 2694 c-8 -75 -25 -163 -36 -189 -4 -11 -19 -47 -32 -80 -12 -33
-26 -62 -29 -65 -3 -3 -9 -22 -12 -44 -3 -21 -21 -68 -39 -105 -17 -36 -34
-70 -37 -76 -16 -37 161 187 185 233 16 31 31 59 34 62 6 6 24 37 54 93 49 91
64 7 16 -91 -35 -73 -37 -88 -11 -95 12 -3 21 -15 23 -33 l3 -29 15 30 c36 71
73 125 86 125 16 0 19 -65 5 -102 -19 -50 -33 -106 -30 -122 3 -14 10 -11 43
15 29 24 49 33 79 33 39 1 42 4 65 49 13 26 28 47 33 47 5 0 9 6 9 13 0 6 9
23 20 37 11 14 20 28 20 33 0 4 -27 7 -59 7 -33 0 -63 5 -66 10 -3 6 -15 10
-26 10 -24 0 -92 33 -137 67 -34 26 -100 108 -144 182 l-26 44 -6 -59z"/>
<path d="M2151 2703 c-17 -27 -34 -52 -39 -58 -15 -19 -50 -101 -62 -145 -17
-68 -49 -160 -70 -207 -11 -24 -20 -46 -20 -50 0 -5 -7 -21 -15 -36 -27 -53 2
-18 87 105 90 129 183 228 216 228 24 0 35 14 50 64 10 35 9 41 -8 53 -10 7
-36 31 -58 53 -21 22 -41 40 -44 40 -4 0 -20 -21 -37 -47z"/>
<path d="M1679 2682 c-3 -20 -2 -29 4 -23 5 5 7 19 5 32 -3 20 -5 19 -9 -9z"/>
<path d="M1720 2680 c0 -11 2 -20 4 -20 2 0 6 9 9 20 3 11 1 20 -4 20 -5 0 -9
-9 -9 -20z"/>
<path d="M1404 2673 c-3 -10 -41 -89 -84 -175 -65 -132 -75 -158 -59 -158 15
0 19 -10 21 -67 l3 -68 13 60 c8 33 22 87 33 120 19 59 23 73 49 165 7 25 16
54 20 65 10 24 19 75 13 75 -2 0 -6 -8 -9 -17z"/>
<path d="M3420 2639 c0 -28 -22 -92 -56 -166 -14 -32 -24 -72 -24 -100 0 -50
-11 -92 -41 -161 -11 -23 -19 -49 -19 -57 0 -8 -11 -36 -24 -62 -14 -27 -32
-68 -42 -93 -9 -25 -21 -56 -27 -70 -6 -14 -13 -29 -15 -35 -3 -5 81 76 187
180 l191 190 0 58 c0 32 4 66 9 75 4 9 11 52 15 95 6 69 5 78 -11 83 -49 17
-110 48 -125 67 -18 20 -18 20 -18 -4z"/>
<path d="M4573 2608 c-18 -30 -33 -59 -33 -66 0 -7 -4 -12 -9 -12 -5 0 -15
-16 -21 -35 -6 -19 -15 -35 -20 -35 -4 0 -15 -15 -24 -32 -9 -18 -28 -51 -42
-72 l-26 -39 27 21 c30 24 95 30 95 10 1 -18 47 118 60 177 6 28 16 62 22 77
21 56 3 60 -29 6z"/>
<path d="M1662 2620 c0 -14 2 -19 5 -12 2 6 2 18 0 25 -3 6 -5 1 -5 -13z"/>
<path d="M1706 2625 c-9 -26 -7 -32 5 -12 6 10 9 21 6 23 -2 3 -7 -2 -11 -11z"/>
<path d="M2330 2583 c-6 -21 -15 -47 -20 -58 -16 -40 -28 -81 -40 -140 -7 -32
-16 -66 -20 -75 -47 -92 -109 -224 -107 -227 2 -1 25 18 51 42 26 25 49 45 52
45 7 0 64 57 64 64 0 3 14 35 30 71 17 36 30 68 30 71 0 3 7 12 15 21 9 8 19
28 22 44 3 15 13 36 22 46 9 10 22 30 30 46 8 15 20 27 28 27 22 0 15 -39 -15
-83 -16 -23 -32 -54 -36 -69 -3 -15 -12 -33 -19 -40 -13 -13 -39 -68 -33 -68
2 0 33 29 70 65 66 65 108 87 128 67 20 -20 4 -171 -26 -236 -29 -66 -30 -70
-15 -61 22 14 69 89 69 111 0 13 14 72 30 131 17 58 30 123 30 144 0 21 5 50
10 65 6 15 9 28 7 30 -2 2 -25 -8 -52 -22 -43 -22 -60 -25 -125 -22 -51 3 -89
11 -119 26 -25 12 -46 22 -47 22 -1 0 -8 -17 -14 -37z"/>
<path d="M4130 2595 c-7 -8 -19 -15 -26 -15 -8 0 -22 -4 -32 -9 -38 -19 -91
-31 -138 -31 l-49 0 -53 -113 c-107 -224 -136 -282 -144 -285 -4 -2 -8 -8 -8
-13 0 -5 -12 -28 -27 -52 -50 -77 -93 -181 -93 -223 0 -15 2 -15 28 1 15 10
36 28 47 40 23 23 31 34 120 151 33 43 65 85 72 94 7 8 34 44 60 80 26 35 73
92 104 125 30 33 61 76 69 95 7 19 22 47 32 62 10 14 18 29 18 32 0 4 10 20
22 36 22 31 21 52 -2 25z"/>
<path d="M1645 2560 c-4 -17 -5 -34 -2 -36 2 -3 7 10 11 27 8 42 0 50 -9 9z"/>
<path d="M1433 2568 c-21 -33 -33 -62 -33 -79 0 -11 -4 -27 -9 -37 -15 -30
-33 -93 -28 -98 3 -3 13 19 22 48 10 29 25 71 35 93 22 50 33 85 26 85 -3 0
-8 -6 -13 -12z"/>
<path d="M1691 2564 c0 -11 3 -14 6 -6 3 7 2 16 -1 19 -3 4 -6 -2 -5 -13z"/>
<path d="M2000 2542 c-14 -20 -27 -39 -30 -42 -15 -15 -50 -71 -50 -80 0 -5
-4 -10 -8 -10 -5 0 -15 -26 -22 -57 -7 -32 -21 -92 -31 -135 -11 -42 -19 -84
-19 -94 0 -17 1 -17 14 1 7 11 21 42 30 68 9 27 24 63 33 80 9 18 26 64 39
103 12 40 34 98 49 129 31 70 29 88 -5 37z"/>
<path d="M3602 2468 c-6 -51 -14 -111 -18 -133 l-6 -40 29 28 c16 15 39 27 51
27 20 0 22 -5 22 -68 0 -37 -5 -73 -11 -79 -6 -6 -9 -17 -7 -23 3 -11 34 50
136 270 l39 85 -71 6 c-39 4 -90 9 -112 13 l-41 7 -11 -93z"/>
<path d="M1621 2468 c0 -9 -4 -25 -7 -35 -5 -17 -5 -17 6 0 6 10 9 25 7 35 -4
15 -5 15 -6 0z"/>
<path d="M3261 2452 c-24 -16 -65 -50 -90 -75 -59 -58 -68 -93 -77 -287 -3
-80 -13 -163 -20 -185 -8 -22 -14 -67 -13 -100 0 -57 1 -59 14 -35 7 14 23 57
35 95 12 39 25 79 29 90 13 31 27 66 49 120 11 28 25 68 31 90 25 94 54 181
62 190 5 5 9 19 9 31 0 12 5 24 11 26 6 2 9 18 7 37 l-3 33 -44 -30z"/>
<path d="M4113 2392 c-17 -8 -35 -24 -41 -36 -40 -87 -72 -182 -72 -211 0 -14
-4 -25 -10 -25 -5 0 -10 -6 -10 -13 0 -12 -30 -92 -65 -172 -20 -47 -25 -65
-17 -65 10 0 48 61 95 150 22 41 44 79 48 85 5 5 9 17 9 27 0 10 3 18 8 18 4
0 13 13 20 29 7 15 26 49 43 74 26 39 30 53 27 100 l-3 54 -32 -15z"/>
<path d="M1601 2384 c0 -11 3 -14 6 -6 3 7 2 16 -1 19 -3 4 -6 -2 -5 -13z"/>
<path d="M2528 2383 c-15 -9 -32 -27 -39 -40 -7 -13 -16 -23 -20 -23 -4 0 -37
-28 -72 -62 -53 -51 -76 -84 -118 -168 -28 -57 -58 -110 -65 -118 -8 -7 -14
-20 -14 -28 0 -8 -4 -14 -10 -14 -5 0 -10 -5 -10 -11 0 -9 -52 -82 -70 -99
-28 -25 -90 -126 -90 -146 0 -2 95 -3 212 -2 l212 3 9 35 c5 19 11 49 14 65 5
32 59 217 72 250 28 68 30 75 21 75 -6 0 -10 -4 -10 -9 0 -6 -20 -31 -45 -58
-24 -26 -45 -51 -45 -55 0 -3 -9 -17 -20 -30 -53 -62 -70 -84 -70 -90 0 -5 -9
-8 -20 -8 -11 0 -20 7 -20 15 0 17 45 101 70 130 74 88 150 251 157 343 3 34
4 62 2 62 -2 0 -16 -8 -31 -17z"/>
<path d="M2845 2374 c-22 -7 -41 -18 -43 -24 -2 -5 -10 -10 -17 -10 -20 0 -27
-64 -23 -220 l3 -135 23 60 c13 33 28 68 33 77 5 10 9 24 9 33 0 8 16 53 35
99 34 84 42 120 27 129 -4 3 -25 -1 -47 -9z"/>
<path d="M4449 2306 c-20 -14 -63 -65 -95 -113 -33 -48 -62 -90 -65 -93 -3 -3
-21 -34 -40 -70 -19 -36 -44 -76 -56 -90 -13 -14 -23 -28 -23 -31 0 -17 -60
-69 -79 -69 -19 0 -21 6 -21 55 0 53 13 114 43 205 32 98 32 135 0 60 -10 -22
-21 -40 -25 -40 -5 0 -8 -6 -8 -14 0 -8 -18 -46 -40 -85 -22 -39 -40 -73 -40
-76 0 -7 -60 -97 -70 -105 -3 -3 -17 -21 -30 -40 -13 -19 -27 -37 -30 -40 -4
-3 -9 -13 -13 -22 -8 -21 -47 -24 -47 -4 0 16 55 186 75 231 33 74 65 160 65
172 0 7 5 13 10 13 6 0 10 11 10 25 0 14 9 48 20 77 11 29 20 55 20 57 0 6
-70 -74 -70 -80 0 -4 -12 -20 -27 -36 -16 -17 -35 -43 -43 -59 -8 -15 -23 -38
-33 -49 -33 -37 -43 -50 -73 -90 -48 -66 -67 -88 -118 -138 -43 -42 -54 -48
-85 -45 -35 3 -37 1 -68 -57 -17 -33 -38 -61 -47 -63 -14 -3 -15 4 -10 55 4
32 13 76 20 98 8 22 14 58 14 79 0 22 4 53 9 70 11 34 41 169 41 182 0 4 -82
-74 -182 -175 -100 -100 -190 -187 -200 -192 -10 -5 -18 -15 -18 -22 0 -13
-29 -82 -51 -121 -12 -21 -15 -21 271 4 52 5 327 15 610 24 283 8 529 18 545
21 25 6 35 2 57 -24 15 -16 41 -58 59 -92 49 -99 59 -103 59 -25 0 66 0 66
-25 60 -22 -5 -25 -3 -25 22 0 16 9 63 19 104 l18 75 -24 3 c-16 2 -23 10 -24
25 0 12 -3 16 -6 10 -2 -7 -11 -13 -19 -13 -10 0 -14 12 -14 41 l0 41 -34 -21
c-18 -12 -46 -21 -61 -21 -18 0 -28 -6 -32 -20 -3 -11 -8 -20 -12 -20 -3 0
-12 -13 -19 -30 -19 -42 -46 -41 -39 3 3 17 11 61 17 97 15 92 46 204 76 268
16 36 24 68 22 94 l-3 38 -36 -24z"/>
<path d="M692 2275 c-7 -14 -12 -34 -12 -45 0 -10 -4 -22 -10 -25 -5 -3 -10
-16 -10 -28 0 -12 -9 -47 -19 -77 -20 -60 -36 -150 -26 -150 5 0 30 52 84 180
33 81 43 170 18 170 -8 0 -19 -11 -25 -25z"/>
<path d="M3605 2267 c-24 -25 -36 -55 -58 -142 -15 -60 -27 -120 -27 -132 0
-12 -4 -25 -10 -28 -5 -3 -10 -30 -10 -58 l0 -52 21 45 c12 25 29 73 39 106
10 34 25 77 34 95 40 86 68 199 49 199 -5 0 -22 -15 -38 -33z"/>
<path d="M1226 2263 c-18 -24 -26 -48 -48 -143 -9 -42 -26 -170 -22 -170 1 0
23 42 48 94 45 90 47 97 44 169 l-3 75 -19 -25z"/>
<path d="M802 2267 c-6 -6 -13 -24 -17 -40 -4 -15 -11 -27 -15 -27 -4 0 -10
-15 -13 -32 -3 -18 -8 -44 -13 -57 l-7 -25 25 25 c14 13 29 40 33 59 25 122
25 119 7 97z"/>
<path d="M2713 2250 c-6 -19 -21 -60 -33 -90 -12 -30 -31 -80 -42 -110 -11
-30 -24 -59 -29 -65 -5 -5 -9 -16 -9 -23 0 -8 -15 -47 -34 -86 -39 -83 -59
-129 -73 -173 l-11 -31 142 -6 c77 -3 201 -8 274 -10 l132 -5 0 122 c0 76 5
137 14 162 7 22 17 103 21 180 l7 140 -21 -19 c-12 -11 -31 -36 -43 -55 -12
-20 -25 -38 -28 -41 -3 -3 -37 -45 -74 -95 -38 -49 -72 -91 -77 -93 -5 -2 -9
-10 -9 -17 0 -8 -8 -16 -19 -20 -20 -6 -54 -104 -66 -187 -4 -32 -11 -48 -21
-48 -19 0 -18 51 1 166 20 112 18 463 -2 404z"/>
<path d="M4182 2260 c0 -14 2 -19 5 -12 2 6 2 18 0 25 -3 6 -5 1 -5 -13z"/>
<path d="M4634 2237 c-24 -50 -59 -112 -66 -115 -5 -2 -8 -10 -8 -19 0 -8 -13
-33 -28 -56 -33 -49 -55 -98 -48 -105 3 -2 28 10 56 28 38 24 50 38 50 57 0
13 14 67 31 119 29 89 36 139 13 91z"/>
<path d="M913 2194 c-79 -60 -101 -89 -108 -141 -3 -27 -10 -64 -15 -83 -17
-66 -22 -112 -11 -105 6 3 11 14 11 23 0 9 9 28 20 42 11 14 20 29 20 34 0 5
11 23 23 40 13 17 36 54 52 81 15 28 38 69 52 92 13 23 20 44 14 47 -5 3 -31
-10 -58 -30z"/>
<path d="M2631 2177 c-16 -41 -13 -57 5 -24 8 16 13 34 11 40 -3 7 -10 -1 -16
-16z"/>
<path d="M4460 2078 c-33 -123 -33 -124 -23 -113 11 11 55 186 49 192 -2 2
-13 -34 -26 -79z"/>
<path d="M2228 2100 c-7 -11 -17 -20 -23 -20 -5 0 -24 -14 -42 -30 -18 -17
-39 -30 -47 -30 -19 0 -25 -11 -54 -90 -37 -104 -36 -100 -17 -100 30 0 96 86
165 213 22 42 38 77 36 77 -3 0 -11 -9 -18 -20z"/>
<path d="M2597 2071 c-4 -17 -3 -21 5 -13 5 5 8 16 6 23 -3 8 -7 3 -11 -10z"/>
<path d="M4140 2072 c0 -12 -4 -30 -9 -40 -11 -20 -31 -103 -31 -129 0 -16 1
-16 13 2 16 23 43 172 33 182 -3 3 -6 -3 -6 -15z"/>
<path d="M1821 2064 c0 -11 3 -14 6 -6 3 7 2 16 -1 19 -3 4 -6 -2 -5 -13z"/>
<path d="M4626 1979 c-24 -19 -36 -49 -18 -49 9 1 44 30 61 53 20 25 -9 23
-43 -4z"/>
<path d="M2561 1974 c0 -11 3 -14 6 -6 3 7 2 16 -1 19 -3 4 -6 -2 -5 -13z"/>
<path d="M4656 1885 c-3 -8 -1 -15 4 -15 6 0 10 7 10 15 0 8 -2 15 -4 15 -2 0
-6 -7 -10 -15z"/>
<path d="M4720 1520 c-8 -11 -20 -20 -28 -20 -9 0 -7 -10 9 -32 13 -18 26 -35
29 -38 3 -3 17 -21 30 -40 13 -19 29 -40 35 -46 59 -64 85 -94 85 -100 0 -3
12 -18 28 -32 15 -15 34 -40 42 -56 l15 -29 3 59 c2 34 -3 80 -12 109 -36 117
-34 115 -35 33 -1 -62 -4 -78 -16 -78 -12 0 -15 16 -15 84 0 96 -2 98 -80 89
l-50 -6 0 62 c0 65 -13 79 -40 41z"/>
</g>
</svg>
